<svg width="18" height="18" viewBox="0 0 18 18" fill="none" xmlns="http://www.w3.org/2000/svg">
<path d="M9.00904 11.1226C7.80569 11.1226 6.83228 10.1851 6.83228 9.00757C6.83228 7.83007 7.80569 6.88507 9.00904 6.88507C10.2124 6.88507 11.1628 7.83007 11.1628 9.00757C11.1628 10.1851 10.2124 11.1226 9.00904 11.1226Z" fill="#A8A8A8"/>
<path opacity="0.4" d="M15.9226 10.7776C15.777 10.5526 15.57 10.3276 15.3018 10.1851C15.0871 10.0801 14.9492 9.90758 14.8265 9.70508C14.4356 9.06008 14.6656 8.21258 15.3171 7.83008C16.0836 7.40258 16.3288 6.45008 15.8843 5.70758L15.3707 4.82258C14.9339 4.08008 13.9758 3.81758 13.217 4.25258C12.5425 4.61258 11.6764 4.37258 11.2855 3.73508C11.1628 3.52508 11.0938 3.30008 11.1092 3.07508C11.1322 2.78258 11.0402 2.50508 10.9022 2.28008C10.6186 1.81508 10.1051 1.50008 9.53792 1.50008H8.4572C7.89768 1.51508 7.38414 1.81508 7.10055 2.28008C6.95492 2.50508 6.87061 2.78258 6.88594 3.07508C6.90127 3.30008 6.83229 3.52508 6.70965 3.73508C6.31875 4.37258 5.45264 4.61258 4.78582 4.25258C4.01935 3.81758 3.06893 4.08008 2.62438 4.82258L2.11084 5.70758C1.67396 6.45008 1.91923 7.40258 2.67803 7.83008C3.32953 8.21258 3.55947 9.06008 3.17623 9.70508C3.04594 9.90758 2.90797 10.0801 2.69336 10.1851C2.43276 10.3276 2.20282 10.5526 2.08019 10.7776C1.79659 11.2426 1.81192 11.8276 2.09551 12.3151L2.62438 13.2151C2.90797 13.6951 3.43683 13.9951 3.98869 13.9951C4.24929 13.9951 4.55588 13.9201 4.80115 13.7701C4.99276 13.6426 5.2227 13.5976 5.47564 13.5976C6.23444 13.5976 6.87061 14.2201 6.88594 14.9626C6.88594 15.8251 7.59109 16.5001 8.48019 16.5001H9.52259C10.404 16.5001 11.1092 15.8251 11.1092 14.9626C11.1322 14.2201 11.7683 13.5976 12.5271 13.5976C12.7724 13.5976 13.0024 13.6426 13.2016 13.7701C13.4469 13.9201 13.7458 13.9951 14.0141 13.9951C14.5583 13.9951 15.0871 13.6951 15.3707 13.2151L15.9073 12.3151C16.1832 11.8126 16.2062 11.2426 15.9226 10.7776Z" fill="#A8A8A8"/>
</svg>
