<svg width="136" height="82" viewBox="0 0 136 82" fill="none" xmlns="http://www.w3.org/2000/svg">
<path d="M135.683 41.0001C135.683 46.3843 134.621 51.7158 132.556 56.6901C130.492 61.6645 127.467 66.1843 123.653 69.9915C119.839 73.7987 115.311 76.8187 110.327 78.8792C105.344 80.9396 100.003 82.0001 94.6092 82.0001L94.6092 53.4554C96.2478 53.4554 97.8703 53.1332 99.3842 52.5073C100.898 51.8813 102.274 50.9639 103.432 49.8073C104.591 48.6507 105.51 47.2777 106.137 45.7665C106.764 44.2554 107.087 42.6357 107.087 41.0001L135.683 41.0001Z" fill="#F9F9F9"/>
<path d="M82.1476 41.0001C82.1476 46.3843 81.0852 51.7158 79.021 56.6901C76.9569 61.6645 73.9314 66.1843 70.1173 69.9915C66.3033 73.7987 61.7753 76.8187 56.792 78.8792C51.8087 80.9396 46.4677 82.0001 41.0738 82.0001L41.0738 53.4554C42.7124 53.4554 44.3349 53.1332 45.8488 52.5073C47.3627 51.8813 48.7382 50.9639 49.8969 49.8073C51.0555 48.6507 51.9746 47.2777 52.6017 45.7665C53.2288 44.2554 53.5515 42.6357 53.5515 41.0001L82.1476 41.0001Z" fill="#F9F9F9"/>
<path d="M53.5358 41C53.5358 35.6158 54.5982 30.2844 56.6623 25.31C58.7265 20.3356 61.752 15.8158 65.566 12.0086C69.3801 8.20142 73.908 5.18138 78.8913 3.12093C83.8746 1.06049 89.2157 -6.5642e-06 94.6096 -5.38618e-06L94.6096 28.5447C92.971 28.5447 91.3484 28.8669 89.8345 29.4928C88.3207 30.1188 86.9451 31.0362 85.7865 32.1928C84.6278 33.3494 83.7087 34.7224 83.0816 36.2336C82.4546 37.7447 82.1318 39.3644 82.1318 41L53.5358 41Z" fill="#F9F9F9"/>
<path d="M0.000376093 41C0.000376799 35.6158 1.06279 30.2844 3.12693 25.31C5.19108 20.3356 8.21656 15.8158 12.0306 12.0086C15.8447 8.20142 20.3726 5.18138 25.3559 3.12093C30.3392 1.06049 35.6803 -6.5642e-06 41.0742 -5.38618e-06L41.0742 28.5447C39.4356 28.5447 37.813 28.8669 36.2991 29.4928C34.7853 30.1188 33.4097 31.0362 32.2511 32.1928C31.0924 33.3494 30.1733 34.7224 29.5462 36.2336C28.9192 37.7447 28.5964 39.3644 28.5964 41L0.000376093 41Z" fill="#F9F9F9"/>
</svg>
