<svg width="32" height="21" viewBox="0 0 32 21" fill="none" xmlns="http://www.w3.org/2000/svg">
<path d="M31.5379 10.5001C31.5379 11.8789 31.2658 13.2443 30.7372 14.5183C30.2086 15.7922 29.4337 16.9497 28.457 17.9247C27.4802 18.8997 26.3206 19.6732 25.0444 20.2009C23.7682 20.7285 22.4003 21.0001 21.019 21.0001L21.019 15.7501C21.7096 15.7501 22.3936 15.6143 23.0317 15.3505C23.6698 15.0866 24.2496 14.6999 24.738 14.2124C25.2264 13.7249 25.6138 13.1461 25.8781 12.5092C26.1424 11.8722 26.2784 11.1895 26.2784 10.5001L31.5379 10.5001Z" fill="#3B3C3E"/>
<path d="M21.0379 10.5001C21.0379 11.8789 20.7658 13.2443 20.2372 14.5183C19.7086 15.7922 18.9337 16.9497 17.957 17.9247C16.9802 18.8997 15.8206 19.6732 14.5444 20.2009C13.2682 20.7285 11.9003 21.0001 10.519 21.0001L10.519 15.7501C11.2096 15.7501 11.8936 15.6143 12.5317 15.3505C13.1698 15.0866 13.7496 14.6999 14.238 14.2124C14.7264 13.7249 15.1138 13.1461 15.3781 12.5092C15.6424 11.8722 15.7784 11.1895 15.7784 10.5001L21.0379 10.5001Z" fill="#3B3C3E"/>
<path d="M10.5378 10.5001C10.5378 9.12118 10.8099 7.75579 11.3385 6.48186C11.8671 5.20794 12.6419 4.05042 13.6187 3.0754C14.5955 2.10037 15.7551 1.32695 17.0313 0.799268C18.3075 0.27159 19.6754 -1.68108e-06 21.0567 -1.37939e-06L21.0567 5.25003C20.366 5.25003 19.6821 5.38583 19.044 5.64967C18.4059 5.91351 17.8261 6.30022 17.3377 6.78773C16.8493 7.27524 16.4619 7.854 16.1976 8.49096C15.9333 9.12793 15.7973 9.81062 15.7973 10.5001L10.5378 10.5001Z" fill="#3B3C3E"/>
<path d="M-6.24121e-05 10.5001C-6.22313e-05 9.12118 0.272019 7.75579 0.800645 6.48186C1.32927 5.20794 2.10409 4.05042 3.08087 3.0754C4.05764 2.10037 5.21724 1.32695 6.49346 0.799268C7.76968 0.27159 9.13752 -1.68108e-06 10.5189 -1.37939e-06L10.5189 5.25003C9.82821 5.25003 9.14428 5.38583 8.50618 5.64967C7.86807 5.91351 7.28827 6.30022 6.79988 6.78773C6.31149 7.27524 5.92408 7.854 5.65977 8.49096C5.39545 9.12793 5.25941 9.81062 5.25941 10.5001L-6.24121e-05 10.5001Z" fill="#3B3C3E"/>
</svg>
