<svg width="33" height="29" viewBox="0 0 33 29" fill="none" xmlns="http://www.w3.org/2000/svg">
<path fill-rule="evenodd" clip-rule="evenodd" d="M30.8033 6.93059C31.5172 6.368 31.7292 5.89199 31.7292 5.54199C31.7292 5.19199 31.5172 4.71599 30.8033 4.1534C30.0995 3.59877 29.0257 3.06011 27.6188 2.59116C24.8145 1.65637 20.8833 1.06283 16.5 1.06283C12.1167 1.06283 8.18554 1.65637 5.38119 2.59116C3.97433 3.06011 2.90045 3.59877 2.19668 4.1534C1.48281 4.71599 1.27083 5.19199 1.27083 5.54199C1.27083 5.89199 1.48281 6.368 2.19668 6.93059C2.90045 7.48522 3.97433 8.02388 5.38119 8.49283C8.18554 9.42761 12.1167 10.0212 16.5 10.0212C20.8833 10.0212 24.8145 9.42761 27.6188 8.49283C29.0257 8.02388 30.0995 7.48522 30.8033 6.93059ZM16.5 10.917C25.4056 10.917 32.625 8.51052 32.625 5.54199C32.625 2.57346 25.4056 0.166992 16.5 0.166992C7.59441 0.166992 0.375 2.57346 0.375 5.54199C0.375 8.51052 7.59441 10.917 16.5 10.917Z" fill="black"/>
<path fill-rule="evenodd" clip-rule="evenodd" d="M30.8033 10.5139C31.5172 9.95133 31.7292 9.47532 31.7292 9.12533C31.7292 8.77533 31.5172 8.29932 30.8033 7.73673C30.0995 7.1821 29.0257 6.64344 27.6188 6.17449C24.8145 5.23971 20.8833 4.64616 16.5 4.64616C12.1167 4.64616 8.18554 5.23971 5.38119 6.17449C3.97433 6.64344 2.90045 7.1821 2.19668 7.73673C1.48281 8.29932 1.27083 8.77533 1.27083 9.12533C1.27083 9.47532 1.48281 9.95133 2.19668 10.5139C2.90045 11.0686 3.97433 11.6072 5.38119 12.0762C8.18554 13.0109 12.1167 13.6045 16.5 13.6045C20.8833 13.6045 24.8145 13.0109 27.6188 12.0762C29.0257 11.6072 30.0995 11.0686 30.8033 10.5139ZM16.5 14.5003C25.4056 14.5003 32.625 12.0939 32.625 9.12533C32.625 6.15679 25.4056 3.75033 16.5 3.75033C7.59441 3.75033 0.375 6.15679 0.375 9.12533C0.375 12.0939 7.59441 14.5003 16.5 14.5003Z" fill="black"/>
<path fill-rule="evenodd" clip-rule="evenodd" d="M30.8033 14.0973C31.5172 13.5347 31.7292 13.0587 31.7292 12.7087C31.7292 12.3587 31.5172 11.8827 30.8033 11.3201C30.0995 10.7654 29.0257 10.2268 27.6188 9.75782C24.8145 8.82304 20.8833 8.22949 16.5 8.22949C12.1167 8.22949 8.18554 8.82304 5.38119 9.75782C3.97433 10.2268 2.90045 10.7654 2.19668 11.3201C1.48281 11.8827 1.27083 12.3587 1.27083 12.7087C1.27083 13.0587 1.48281 13.5347 2.19668 14.0973C2.90045 14.6519 3.97433 15.1905 5.38119 15.6595C8.18554 16.5943 12.1167 17.1878 16.5 17.1878C20.8833 17.1878 24.8145 16.5943 27.6188 15.6595C29.0257 15.1905 30.0995 14.6519 30.8033 14.0973ZM16.5 18.0837C25.4056 18.0837 32.625 15.6772 32.625 12.7087C32.625 9.74013 25.4056 7.33366 16.5 7.33366C7.59441 7.33366 0.375 9.74013 0.375 12.7087C0.375 15.6772 7.59441 18.0837 16.5 18.0837Z" fill="black"/>
<path fill-rule="evenodd" clip-rule="evenodd" d="M30.8033 17.6806C31.5172 17.118 31.7292 16.642 31.7292 16.292C31.7292 15.942 31.5172 15.466 30.8033 14.9034C30.0995 14.3488 29.0257 13.8101 27.6188 13.3412C24.8145 12.4064 20.8833 11.8128 16.5 11.8128C12.1167 11.8128 8.18554 12.4064 5.38119 13.3412C3.97433 13.8101 2.90045 14.3488 2.19668 14.9034C1.48281 15.466 1.27083 15.942 1.27083 16.292C1.27083 16.642 1.48281 17.118 2.19668 17.6806C2.90045 18.2352 3.97433 18.7739 5.38119 19.2428C8.18554 20.1776 12.1167 20.7712 16.5 20.7712C20.8833 20.7712 24.8145 20.1776 27.6188 19.2428C29.0257 18.7739 30.0995 18.2352 30.8033 17.6806ZM16.5 21.667C25.4056 21.667 32.625 19.2605 32.625 16.292C32.625 13.3235 25.4056 10.917 16.5 10.917C7.59441 10.917 0.375 13.3235 0.375 16.292C0.375 19.2605 7.59441 21.667 16.5 21.667Z" fill="black"/>
<path fill-rule="evenodd" clip-rule="evenodd" d="M30.8033 21.2639C31.5172 20.7013 31.7292 20.2253 31.7292 19.8753C31.7292 19.5253 31.5172 19.0493 30.8033 18.4867C30.0995 17.9321 29.0257 17.3934 27.6188 16.9245C24.8145 15.9897 20.8833 15.3962 16.5 15.3962C12.1167 15.3962 8.18554 15.9897 5.38119 16.9245C3.97433 17.3934 2.90045 17.9321 2.19668 18.4867C1.48281 19.0493 1.27083 19.5253 1.27083 19.8753C1.27083 20.2253 1.48281 20.7013 2.19668 21.2639C2.90045 21.8186 3.97433 22.3572 5.38119 22.8262C8.18554 23.7609 12.1167 24.3545 16.5 24.3545C20.8833 24.3545 24.8145 23.7609 27.6188 22.8262C29.0257 22.3572 30.0995 21.8186 30.8033 21.2639ZM16.5 25.2503C25.4056 25.2503 32.625 22.8439 32.625 19.8753C32.625 16.9068 25.4056 14.5003 16.5 14.5003C7.59441 14.5003 0.375 16.9068 0.375 19.8753C0.375 22.8439 7.59441 25.2503 16.5 25.2503Z" fill="black"/>
<path fill-rule="evenodd" clip-rule="evenodd" d="M30.8033 24.8473C31.5172 24.2847 31.7292 23.8087 31.7292 23.4587C31.7292 23.1087 31.5172 22.6327 30.8033 22.0701C30.0995 21.5154 29.0257 20.9768 27.6188 20.5078C24.8145 19.573 20.8833 18.9795 16.5 18.9795C12.1167 18.9795 8.18554 19.573 5.38119 20.5078C3.97433 20.9768 2.90045 21.5154 2.19668 22.0701C1.48281 22.6327 1.27083 23.1087 1.27083 23.4587C1.27083 23.8087 1.48281 24.2847 2.19668 24.8473C2.90045 25.4019 3.97433 25.9405 5.38119 26.4095C8.18554 27.3443 12.1167 27.9378 16.5 27.9378C20.8833 27.9378 24.8145 27.3443 27.6188 26.4095C29.0257 25.9405 30.0995 25.4019 30.8033 24.8473ZM16.5 28.8337C25.4056 28.8337 32.625 26.4272 32.625 23.4587C32.625 20.4901 25.4056 18.0837 16.5 18.0837C7.59441 18.0837 0.375 20.4901 0.375 23.4587C0.375 26.4272 7.59441 28.8337 16.5 28.8337Z" fill="black"/>
</svg>
