<svg width="33" height="33" viewBox="0 0 33 33" fill="none" xmlns="http://www.w3.org/2000/svg">
<path d="M8.4375 0.375L9.34967 7.52533L16.5 8.4375L9.34967 9.34967L8.4375 16.5L7.52533 9.34967L0.375 8.4375L7.52533 7.52533L8.4375 0.375Z" fill="black"/>
<path fill-rule="evenodd" clip-rule="evenodd" d="M16.5 24.5625L9.34967 25.4747L8.4375 32.625L7.52533 25.4747L0.375 24.5625L7.52533 23.6503L8.4375 16.5L9.34967 23.6503L16.5 24.5625ZM16.5 24.5625L15.5878 17.4122L8.4375 16.5L15.5878 15.5878L16.5 8.4375L17.4122 15.5878L24.5625 16.5L17.4122 17.4122L16.5 24.5625ZM16.5 24.5625L23.6503 23.6503L24.5625 16.5L25.4747 23.6503L32.625 24.5625L25.4747 25.4747L24.5625 32.625L23.6503 25.4747L16.5 24.5625Z" fill="black"/>
<path d="M24.5625 16.5L25.4747 9.34967L32.625 8.4375L25.4747 7.52533L24.5625 0.375L23.6503 7.52533L16.5 8.4375L23.6503 9.34967L24.5625 16.5Z" fill="black"/>
</svg>
